<svg width="24" height="24" viewBox="0 0 24 24" fill="none" xmlns="http://www.w3.org/2000/svg">
  <path d="M8.219 11.219L15.719 3.719C15.7887 3.64932 15.8714 3.59404 15.9624 3.55633C16.0535 3.51862 16.151 3.49921 16.2496 3.49921C16.3481 3.49921 16.4457 3.51862 16.5368 3.55633C16.6278 3.59404 16.7105 3.64932 16.7802 3.719C16.8499 3.78868 16.9052 3.87141 16.9429 3.96245C16.9806 4.05349 17 4.15107 17 4.24962C17 4.34816 16.9806 4.44574 16.9429 4.53679C16.9052 4.62783 16.8499 4.71056 16.7802 4.78024L9.8099 11.7496L16.7802 18.719C16.9209 18.8597 17 19.0506 17 19.2496C17 19.4486 16.9209 19.6395 16.7802 19.7802C16.6395 19.9209 16.4486 20 16.2496 20C16.0506 20 15.8597 19.9209 15.719 19.7802L8.219 12.2802C8.14925 12.2106 8.09394 12.1278 8.05621 12.0368C8.01848 11.9457 7.99905 11.8481 7.99905 11.7496C7.99905 11.651 8.01848 11.5534 8.05621 11.4624C8.09394 11.3713 8.14925 11.2886 8.219 11.219Z" fill="#1A1717"/>
</svg>
