<svg width="24" height="24" viewBox="0 0 24 24" fill="none" xmlns="http://www.w3.org/2000/svg">
  <path d="M15.781 12.781L8.28104 20.281C8.21136 20.3507 8.12863 20.406 8.03759 20.4437C7.94654 20.4814 7.84896 20.5008 7.75042 20.5008C7.65187 20.5008 7.55429 20.4814 7.46324 20.4437C7.3722 20.406 7.28947 20.3507 7.21979 20.281C7.15011 20.2114 7.09483 20.1286 7.05712 20.0376C7.01941 19.9465 7 19.849 7 19.7504C7 19.6519 7.01941 19.5543 7.05712 19.4632C7.09483 19.3722 7.15011 19.2895 7.21979 19.2198L14.1901 12.2504L7.21979 5.28104C7.07906 5.14031 7 4.94944 7 4.75042C7 4.55139 7.07906 4.36052 7.21979 4.21979C7.36052 4.07906 7.55139 4 7.75042 4C7.94944 4 8.14031 4.07906 8.28104 4.21979L15.781 11.7198C15.8508 11.7894 15.9061 11.8722 15.9438 11.9632C15.9816 12.0543 16.001 12.1519 16.001 12.2504C16.001 12.349 15.9816 12.4466 15.9438 12.5376C15.9061 12.6287 15.8508 12.7114 15.781 12.781Z" fill="#1A1717"/>
</svg>
