<svg width="24" height="24" viewBox="0 0 24 24" fill="none" xmlns="http://www.w3.org/2000/svg">
  <path d="M18.9764 19.2192H5.02358C3.35633 19.2192 2 17.8631 2 16.1961V7.02358C2 5.35633 3.35633 4 5.02358 4H18.9764C20.6437 4 22 5.35633 22 7.02358V16.1961C22 17.8631 20.6437 19.2192 18.9764 19.2192ZM5.02358 5.00786C3.91216 5.00786 3.00786 5.91216 3.00786 7.02358V16.1961C3.00786 17.3073 3.91216 18.2113 5.02358 18.2113H18.9764C20.0878 18.2113 20.9921 17.3073 20.9921 16.1961V7.02358C20.9921 5.91216 20.0878 5.00786 18.9764 5.00786H5.02358Z" fill="#1A1717"/>
  <path d="M12.0001 14.5564C11.3059 14.5564 10.6118 14.3165 10.0456 13.837L2.17822 7.1723L2.8298 6.40305L10.6972 13.0678C11.0607 13.3774 11.5225 13.5475 12 13.5476C12.4775 13.5476 12.9394 13.3776 13.303 13.068L21.1706 6.40305C21.2731 6.32126 21.4035 6.28262 21.534 6.29535C21.6645 6.30808 21.785 6.37116 21.8697 6.47122C21.9545 6.57128 21.997 6.70043 21.9881 6.83128C21.9792 6.96212 21.9197 7.08436 21.8222 7.17205L13.9543 13.837C13.4089 14.3011 12.7162 14.5561 12.0001 14.5564Z" fill="#1A1717"/>
</svg>
