<svg width="10" height="16" viewBox="0 0 10 16" fill="none" xmlns="http://www.w3.org/2000/svg">
  <path d="M8.0118 2.85997H9.57736V0.00173964H6.7323C6.49496 -0.00813562 3.60184 -0.063437 2.85198 2.79611C2.84111 2.82607 2.60147 3.50614 2.60147 5.09474L0 5.10264V8.10044L2.60477 8.09287V16H6.58351V8.09979H9.21692V5.09409H6.58351V4.14836C6.58351 3.56046 6.83138 2.85997 8.0118 2.85997ZM8.55856 5.75211V7.44111H5.92516V15.3413H3.26312V7.43255L0.658351 7.44012V5.75902L3.27003 5.75145L3.26312 5.41668C3.22888 3.73393 3.46885 3.0262 3.47971 2.9923C4.12687 0.529408 6.59799 0.653178 6.70399 0.659762L8.91901 0.66042V2.20195H8.0118C6.47357 2.20195 5.92549 3.20725 5.92549 4.14803V5.75211H8.55856Z" fill="#1A1717" fill-opacity="0.8"/>
</svg>
