<svg width="16" height="16" viewBox="0 0 16 16" fill="none" xmlns="http://www.w3.org/2000/svg">
  <path d="M11.9945 15.9999H4.00579C2.94378 15.9987 1.9256 15.5763 1.17463 14.8254C0.42366 14.0745 0.00122555 13.0563 0 11.9943V4.00559C0.00124306 2.94359 0.423686 1.92544 1.17465 1.17451C1.92562 0.423583 2.94379 0.00119045 4.00579 0H11.9945C13.0565 0.00119048 14.0747 0.423592 14.8256 1.17454C15.5766 1.92548 15.999 2.94364 16.0003 4.00566V11.9943C15.999 13.0564 15.5766 14.0745 14.8256 14.8255C14.0747 15.5764 13.0565 15.9988 11.9945 16V15.9999ZM4.00579 0.664126C3.11989 0.665141 2.27056 1.01751 1.64414 1.64394C1.01771 2.27036 0.665339 3.11969 0.664324 4.00559V11.9943C0.665339 12.8802 1.01771 13.7295 1.64414 14.3559C2.27056 14.9824 3.11989 15.3347 4.00579 15.3357H11.9945C12.8804 15.3347 13.7298 14.9824 14.3562 14.3559C14.9826 13.7295 15.335 12.8801 15.336 11.9942V4.00559C15.335 3.11968 14.9826 2.27034 14.3562 1.64392C13.7297 1.01749 12.8804 0.665123 11.9945 0.664126H4.00579Z" fill="#1A1717" fill-opacity="0.8"/>
  <path d="M8.00017 12.0912C7.19105 12.0912 6.4001 11.8512 5.72734 11.4017C5.05459 10.9522 4.53023 10.3133 4.2206 9.56575C3.91096 8.81822 3.82994 7.99566 3.98778 7.20209C4.14563 6.40852 4.53525 5.67958 5.10738 5.10744C5.67951 4.5353 6.40845 4.14567 7.20202 3.98781C7.99559 3.82995 8.81814 3.91095 9.56568 4.22058C10.3132 4.53021 10.9521 5.05455 11.4017 5.7273C11.8512 6.40005 12.0911 7.19099 12.0912 8.00011C12.0899 9.08474 11.6585 10.1246 10.8916 10.8916C10.1247 11.6585 9.0848 12.0899 8.00017 12.0912ZM8.00017 4.57345C7.3224 4.57344 6.65986 4.77441 6.09631 5.15095C5.53277 5.52749 5.09354 6.06268 4.83416 6.68885C4.57479 7.31502 4.50693 8.00405 4.63915 8.66879C4.77138 9.33353 5.09776 9.94413 5.57702 10.4234C6.05627 10.9026 6.66688 11.229 7.33162 11.3612C7.99637 11.4934 8.68539 11.4255 9.31156 11.1662C9.93772 10.9068 10.4729 10.4675 10.8494 9.90398C11.226 9.34043 11.4269 8.67788 11.4269 8.00011C11.4259 7.0916 11.0645 6.22059 10.4221 5.57817C9.77969 4.93575 8.90868 4.57447 8.00017 4.57345ZM12.2395 4.56154C12.0039 4.56153 11.7737 4.49167 11.5778 4.3608C11.382 4.22994 11.2294 4.04393 11.1392 3.82632C11.0491 3.6087 11.0255 3.36925 11.0715 3.13824C11.1174 2.90722 11.2309 2.69503 11.3974 2.52848C11.564 2.36193 11.7762 2.24851 12.0072 2.20257C12.2382 2.15662 12.4777 2.18021 12.6953 2.27035C12.9129 2.36049 13.0989 2.51313 13.2297 2.70898C13.3606 2.90482 13.4305 3.13508 13.4305 3.37062C13.4301 3.68637 13.3045 3.98908 13.0812 4.21235C12.8579 4.43561 12.5552 4.56119 12.2395 4.56154ZM12.2395 2.84381C12.1353 2.84381 12.0334 2.8747 11.9468 2.93258C11.8602 2.99046 11.7927 3.07272 11.7528 3.16896C11.713 3.26521 11.7025 3.37111 11.7228 3.47329C11.7432 3.57546 11.7933 3.66932 11.867 3.74299C11.9406 3.81665 12.0345 3.86682 12.1367 3.88716C12.2388 3.90749 12.3447 3.89707 12.441 3.85721C12.5372 3.81735 12.6195 3.74985 12.6774 3.66324C12.7353 3.57662 12.7662 3.47479 12.7662 3.37062C12.766 3.23096 12.7105 3.09707 12.6117 2.99831C12.513 2.89955 12.3791 2.84399 12.2395 2.84381Z" fill="#1A1717" fill-opacity="0.8"/>
</svg>
