<svg width="24" height="24" viewBox="0 0 24 24" fill="none" xmlns="http://www.w3.org/2000/svg">
  <path d="M12.3881 2C8.31421 2 5 5.31421 5 9.38809C5 10.7292 5.60148 12.1717 5.62668 12.2325C5.82095 12.6936 6.20426 13.4098 6.48066 13.8296L11.5463 21.505C11.7536 21.8196 12.0604 22 12.3881 22C12.7158 22 13.0226 21.8196 13.2299 21.5054L18.296 13.8296C18.5728 13.4098 18.9557 12.6936 19.1499 12.2325C19.1751 12.1721 19.7762 10.7297 19.7762 9.38809C19.7762 5.31421 16.462 2 12.3881 2ZM18.3485 11.8953C18.1751 12.3086 17.8183 12.9748 17.5702 13.3512L12.5041 21.0269C12.4042 21.1786 12.3724 21.1786 12.2725 21.0269L7.20643 13.3512C6.95828 12.9748 6.60148 12.3081 6.42807 11.8948C6.42069 11.877 5.86919 10.5493 5.86919 9.38809C5.86919 5.79357 8.79357 2.86919 12.3881 2.86919C15.9826 2.86919 18.907 5.79357 18.907 9.38809C18.907 10.5511 18.3542 11.8822 18.3485 11.8953Z" fill="#1A1717"/>
  <path d="M12.3881 5.47852C10.2313 5.47852 8.47681 7.2334 8.47681 9.38986C8.47681 11.5463 10.2313 13.3012 12.3881 13.3012C14.545 13.3012 16.2995 11.5463 16.2995 9.38986C16.2995 7.2334 14.545 5.47852 12.3881 5.47852ZM12.3881 12.432C10.7111 12.432 9.34599 11.0674 9.34599 9.38986C9.34599 7.71233 10.7111 6.3477 12.3881 6.3477C14.0652 6.3477 15.4303 7.71233 15.4303 9.38986C15.4303 11.0674 14.0652 12.432 12.3881 12.432Z" fill="#1A1717"/>
</svg>
