<svg width="24" height="24" viewBox="0 0 24 24" fill="none" xmlns="http://www.w3.org/2000/svg">
  <path d="M6.0376 15.2947C8.01025 17.6527 10.3849 19.5093 13.0952 20.823C14.1271 21.3121 15.5071 21.8923 17.0446 21.9917C17.14 21.9959 17.2311 22 17.3265 22C18.3584 22 19.1872 21.6436 19.8627 20.9101C19.8669 20.9059 19.8751 20.8976 19.8793 20.8893C20.1197 20.5993 20.3932 20.3382 20.6791 20.0605C20.8739 19.874 21.0728 19.6792 21.2635 19.4803C22.1462 18.5603 22.1462 17.3916 21.2552 16.5006L18.7645 14.0099C18.3418 13.5707 17.8362 13.3386 17.3057 13.3386C16.7753 13.3386 16.2655 13.5707 15.8304 14.0058L14.3468 15.4894C14.21 15.4107 14.0691 15.3402 13.9365 15.2739C13.7707 15.191 13.6174 15.1123 13.4806 15.0253C12.1296 14.1674 10.9029 13.0485 9.7301 11.6104C9.13748 10.8603 8.73963 10.2304 8.46197 9.58807C8.85153 9.23581 9.21622 8.86697 9.56848 8.50642C9.6928 8.37795 9.82128 8.24948 9.94975 8.12101C10.3973 7.67344 10.6377 7.15541 10.6377 6.62909C10.6377 6.10278 10.4015 5.58475 9.94975 5.13717L8.71477 3.9022C8.56972 3.75715 8.43296 3.61625 8.29206 3.4712C8.01854 3.18939 7.73259 2.8993 7.45078 2.63821C7.02393 2.21964 6.52248 2 5.99202 2C5.4657 2 4.96011 2.21964 4.51668 2.64235L2.96674 4.19229C2.40312 4.75591 2.08402 5.4397 2.01771 6.23125C1.93897 7.22172 2.12132 8.27435 2.59376 9.54662C3.319 11.5151 4.41307 13.3427 6.0376 15.2947ZM3.0289 6.31828C3.07863 5.76709 3.28999 5.30709 3.68783 4.90924L5.22948 3.36759C5.46985 3.13552 5.73508 3.01533 5.99202 3.01533C6.24481 3.01533 6.50176 3.13552 6.73798 3.37588C7.01564 3.63282 7.27673 3.9022 7.55853 4.18815C7.69944 4.3332 7.84448 4.47824 7.98953 4.62743L9.22451 5.86241C9.48145 6.11935 9.61407 6.38044 9.61407 6.63738C9.61407 6.89432 9.48145 7.15541 9.22451 7.41235C9.09604 7.54082 8.96757 7.67344 8.8391 7.80191C8.45368 8.19146 8.09314 8.5603 7.69529 8.91256L7.67457 8.93328C7.3306 9.27725 7.38448 9.60464 7.46736 9.85329C7.4715 9.86573 7.47565 9.87402 7.47979 9.88645C7.7989 10.6531 8.24233 11.3825 8.93441 12.2528C10.1777 13.7862 11.4873 14.9755 12.9294 15.8914C13.1076 16.0075 13.2983 16.0986 13.4765 16.1898C13.6422 16.2727 13.7956 16.3514 13.9323 16.4385C13.9489 16.4467 13.9613 16.455 13.9779 16.4633C14.1147 16.5338 14.2473 16.5669 14.3799 16.5669C14.7115 16.5669 14.927 16.3556 14.9974 16.2851L16.5473 14.7352C16.7877 14.4948 17.0488 14.3663 17.3057 14.3663C17.6207 14.3663 17.8776 14.5611 18.0393 14.7352L20.5382 17.23C21.0355 17.7273 21.0314 18.2661 20.5258 18.7924C20.3517 18.9789 20.1694 19.1571 19.9746 19.3436C19.6845 19.6254 19.382 19.9155 19.1085 20.2429C18.6319 20.7567 18.0641 20.9971 17.3306 20.9971C17.2601 20.9971 17.1856 20.993 17.1151 20.9888C15.7558 20.9018 14.4918 20.3713 13.5428 19.9196C10.9651 18.6722 8.70234 16.9026 6.82501 14.6564C5.27921 12.7957 4.23901 11.0634 3.55107 9.2068C3.12422 8.06714 2.96259 7.15126 3.0289 6.31828Z" fill="#1A1717"/>
</svg>
